<svg width="25" height="25" viewBox="0 0 25 25" fill="none" xmlns="http://www.w3.org/2000/svg">
<mask id="mask0_1760_338" style="mask-type:alpha" maskUnits="userSpaceOnUse" x="0" y="0" width="25" height="25">
<rect x="0.631226" y="0.487396" width="24" height="24" fill="#D9D9D9"/>
</mask>
<g mask="url(#mask0_1760_338)">
<path d="M11.2312 14.2874L9.08123 12.1374C8.89789 11.9541 8.66456 11.8624 8.38123 11.8624C8.09789 11.8624 7.86456 11.9541 7.68123 12.1374C7.49789 12.3207 7.40623 12.5541 7.40623 12.8374C7.40623 13.1207 7.49789 13.3541 7.68123 13.5374L10.5312 16.3874C10.7312 16.5874 10.9646 16.6874 11.2312 16.6874C11.4979 16.6874 11.7312 16.5874 11.9312 16.3874L17.5812 10.7374C17.7646 10.5541 17.8562 10.3207 17.8562 10.0374C17.8562 9.75406 17.7646 9.52073 17.5812 9.3374C17.3979 9.15406 17.1646 9.0624 16.8812 9.0624C16.5979 9.0624 16.3646 9.15406 16.1812 9.3374L11.2312 14.2874ZM12.6312 22.4874C11.2479 22.4874 9.94789 22.2249 8.73123 21.6999C7.51456 21.1749 6.45623 20.4624 5.55623 19.5624C4.65623 18.6624 3.94373 17.6041 3.41873 16.3874C2.89373 15.1707 2.63123 13.8707 2.63123 12.4874C2.63123 11.1041 2.89373 9.80406 3.41873 8.5874C3.94373 7.37073 4.65623 6.3124 5.55623 5.4124C6.45623 4.5124 7.51456 3.7999 8.73123 3.2749C9.94789 2.7499 11.2479 2.4874 12.6312 2.4874C14.0146 2.4874 15.3146 2.7499 16.5312 3.2749C17.7479 3.7999 18.8062 4.5124 19.7062 5.4124C20.6062 6.3124 21.3187 7.37073 21.8437 8.5874C22.3687 9.80406 22.6312 11.1041 22.6312 12.4874C22.6312 13.8707 22.3687 15.1707 21.8437 16.3874C21.3187 17.6041 20.6062 18.6624 19.7062 19.5624C18.8062 20.4624 17.7479 21.1749 16.5312 21.6999C15.3146 22.2249 14.0146 22.4874 12.6312 22.4874ZM12.6312 20.4874C14.8646 20.4874 16.7562 19.7124 18.3062 18.1624C19.8562 16.6124 20.6312 14.7207 20.6312 12.4874C20.6312 10.2541 19.8562 8.3624 18.3062 6.8124C16.7562 5.2624 14.8646 4.4874 12.6312 4.4874C10.3979 4.4874 8.50623 5.2624 6.95623 6.8124C5.40623 8.3624 4.63123 10.2541 4.63123 12.4874C4.63123 14.7207 5.40623 16.6124 6.95623 18.1624C8.50623 19.7124 10.3979 20.4874 12.6312 20.4874Z" fill="#1C1B1F"/>
</g>
</svg>
